<?xml version="1.0" standalone="no"?><svg xmlns="http://www.w3.org/2000/svg" viewBox="0 0 1440 320"><path fill="#C2E1D3" fill-opacity="1" d="M0,160L30,133.3C60,107,120,53,180,58.7C240,64,300,128,360,154.7C420,181,480,171,540,149.3C600,128,660,96,720,74.7C780,53,840,43,900,69.3C960,96,1020,160,1080,160C1140,160,1200,96,1260,101.3C1320,107,1380,181,1410,218.7L1440,256L1440,0L1410,0C1380,0,1320,0,1260,0C1200,0,1140,0,1080,0C1020,0,960,0,900,0C840,0,780,0,720,0C660,0,600,0,540,0C480,0,420,0,360,0C300,0,240,0,180,0C120,0,60,0,30,0L0,0Z"></path></svg>